<svg version="1" xmlns="http://www.w3.org/2000/svg" width="351" height="351" viewBox="0 0 351 351"><g fill-rule="evenodd" clip-rule="evenodd"><path d="M331 10c2 12-7 19 0 26-2 5-7 6-10 9 1 8-3 10-8 13 0 6-2 10-6 13 1 15-7 23-14 30 4 12 11 21 15 33 21 60-6 122-38 154-12 11-30 21-46 29-1 4-2 8-1 14-1 3-6 2-6 5-1 3 4 4 3 6l-12 2c-2-3 0-8-4-9-3 2 0 6 0 10-6-3-7-13-5-20-3-6-7 2-13 3-3 1-5-3-8 0l-22-4-18-1c-4-1-7-5-10-5s-7 3-9 4c-3-3-5-1-7 0-5-1-4-8-5-11-32-17-56-42-70-78-7-18-12-36-10-61A145 145 0 0 1 160 30c19-1 41 5 55 10 6 2 14 4 21 8 4 2 13 10 17 10 6 0 6-6 9-9h8c0-18 15-23 28-29 2-1 3 1 6 1 2-1 2-5 4-7 6-2 14-5 23-4zM207 40c-6-2-13-4-18-4-68-7-111 28-138 68l-10 16c-7 18-12 42-11 65 0 29 12 58 25 75 9 13 22 29 36 38 4 3 13 9 17 9 3 0 5-5 9-7 5-2 8-2 12-5 0-26-3-50-8-72 4-7 1-15-6-15-2-2-2-7-6-7-9 1-3 24-12 26-8 2-19-8-13-14 2 6 12 4 10-4 7 0 12-12 7-16-4 1-3 4-6 6-3 3-7 1-11 3-3 1-5 4-8 4-10 1-14-13-24-11-9-6 2-16 0-26-1-4-5-8-6-13-1-7 0-14 4-19 6 3 6 13 12 15 5-3 6-6 12-8 5-1 12 0 17-2 10-5 6-22 18-26l3 19c0 7-2 13 1 18 8-6 9-19 10-32 1-2 4-2 6-4 6-25 29-33 43-49 1 9 9 6 14 2 5 5 9-2 16-1 1 13 12 17 22 22 2 5 2 13 2 21l7 14c6-3 2-11 3-17l2-9c1-6-2-11-1-17 2-1 4 1 7 1 1-9 5-14 6-22-11-10-26-18-43-22zm75 229c19-23 30-56 29-96-2-26-7-53-23-66-2 5-9 6-11 11-3 1-6-1-7 1 11 12-10 24-17 28-2 5-11 14-12 20l1 5c0 3-4 5-4 8-1 6 3 9 8 13-6 3-9 8-12 14l2 5c-4 2-4 10-7 15-1 2-4 3-5 6l3 6c-6 3-5 9 0 12-9 7 4 13 5 18 1 4-1 6-2 10-3 9-5 21-5 32 23-6 41-24 57-42zM104 164c0-4-7-4-10-3-5 2-10 9-9 14 4-2 20-6 19-11zm-33 14c-1-6-14-8-13 1 3 5 13 5 13-1zm24 4c-7-1-6 9-14 11-5 1-8-2-13 1-2 5 3 9 8 8 4-1 3-5 6-6 10 11 27-14 13-14zm-20 6c2 4 7 2 10 0v-5c-4 1-9 1-10 5zm89 64c-6 4-5 14-7 25l-2 18c0 3 3 4 3 7v13c-3 1-4-3-7-1-2 9 10 9 17 10 5-4 5-13 10-16l11-1c5-18 5-35 0-51-2-9-8-16-10-24-4-10-5-18-7-28h-2c1 19-9 31-6 48zm-22 38c0-8 3-18 4-28 1-17 5-40-2-53h-1c-3 9-6 24-5 36l2 11-3 47c3 1 4 0 6-1 2-4-1-8-1-12zm-52-69c4 4 12-2 7-6-2 2-6 2-7 6zm117 48c1 4-1 10-3 15l-5 24c-1 9-4 8-7 13 7 1 17-1 23-4 2-23-1-51-12-64h-1c-1 5 4 10 5 16zm-81 43c0 4 4 6 7 5 2-5-4-7-7-5zm18 8l6 1c1-5-7-7-6-1z"/><path d="M58 200c0 2 2 2 3 4-4 4-12 5-18 8 2-5 10-3 11-8-1-3-6 2-8 0 3-2 7-4 12-4zM65 206c5-1 6 6 4 9-3 0-3-2-4-3-4 1-3 7-7 7-1-5 3-10 7-13z"/></g></svg>